<svg width="878" height="672" viewBox="0 0 878 672" fill="none" xmlns="http://www.w3.org/2000/svg">
<path d="M154.545 10.1096L154.281 20.2191H164.83H175.379L175.116 10.1096L174.852 -3.8147e-06H164.83H154.809L154.545 10.1096Z" fill="black"/>
<path d="M284.826 46.5919V62.4156H266.804H248.783V75.1624V87.9092L183.115 87.9971C146.896 87.9971 90.986 88.085 58.7234 88.1729C26.3728 88.1729 0 88.3488 0 88.5246C0 89.4916 7.91183 100.304 14.7687 108.656C40.3503 139.951 83.5138 172.566 126.853 193.4C167.291 212.74 209.312 225.311 240.695 227.421L248.783 227.949V235.597V243.333L261.794 243.596L274.716 243.948L280.87 248.256C297.836 260.299 309.001 275.068 313.045 290.804C319.902 317.616 305.66 343.725 273.661 363.153C262.673 369.834 246.058 377.482 234.542 381.262L224.169 384.603V408.514V432.513H273.925H323.594L329.484 428.909C350.67 415.986 377.922 406.668 407.899 402.097C422.052 399.899 454.315 399.899 468.996 402.009C499.94 406.58 528.774 416.514 549.257 429.524L553.828 432.513H603.936H654.045V408.338C654.045 388.998 653.781 384.163 652.902 384.163C650.528 384.163 629.606 376.076 619.848 371.416C605.079 364.296 593.475 356.296 583.717 346.362C574.838 337.396 570.795 331.418 567.19 321.924C565.08 316.649 564.905 314.803 564.905 303.726C564.817 293.089 565.168 290.628 566.839 285.705C571.41 272.958 580.552 261.266 594.53 250.453L602.354 244.388H618.969H635.584V236.476C635.584 230.762 635.847 228.564 636.726 228.564C643.32 228.564 677.78 224.608 679.274 223.641C680.329 222.938 682.263 220.652 683.494 218.542C684.725 216.432 686.483 214.411 687.274 214.059C688.065 213.707 695.889 210.894 704.592 207.817C775.711 182.236 835.05 145.402 864.323 108.744C868.543 103.381 877.334 90.1949 877.334 89.052C877.334 88.7004 835.577 88.4367 784.59 88.6125L691.846 88.7883V82.1951V75.6019H663.715H635.584V69.0087V62.4156L494.314 62.5914L352.956 62.8551L353.307 73.0526C353.483 78.6787 353.307 85.7115 352.956 88.7004L352.34 94.0629H334.407H316.473V79.9095C316.473 66.5473 316.561 65.7561 318.231 65.3166C319.902 64.877 319.99 64.0858 319.99 47.8226V30.7682H302.408H284.826V46.5919ZM298.012 107.249V126.589H279.112H260.211V107.689V88.8762L272.343 88.5246C278.936 88.4367 287.463 88.1729 291.243 88.085L298.012 87.9092V107.249ZM224.169 124.831V140.655H208.345H192.521V124.831V109.007H208.345H224.169V124.831ZM356.911 129.666V144.171H341.967H327.022V129.666V115.161H341.967H356.911V129.666ZM284.826 176.258V188.126H273.398H261.969V176.258V164.39H273.398H284.826V176.258Z" fill="black"/>
<path d="M189.004 52.306V72.0856H208.783H228.563V52.306V32.5265H208.783H189.004V52.306Z" fill="black"/>
<path d="M127.469 58.0201V69.4483H139.336H151.204V58.0201V46.5919H139.336H127.469V58.0201Z" fill="black"/>
<path d="M154.545 10.1096L154.281 20.2191H164.83H175.379L175.116 10.1096L174.852 -3.8147e-06H164.83H154.809L154.545 10.1096Z" fill="black"/>
<path d="M284.826 46.5919V62.4156H266.804H248.783V75.1624V87.9092L183.115 87.9971C146.896 87.9971 90.986 88.085 58.7234 88.1729C26.3728 88.1729 0 88.3488 0 88.5246C0 89.4916 7.91183 100.304 14.7687 108.656C40.3503 139.951 83.5138 172.566 126.853 193.4C167.291 212.74 209.312 225.311 240.695 227.421L248.783 227.949V235.597V243.333L261.794 243.596L274.716 243.948L280.87 248.256C297.836 260.299 309.001 275.068 313.045 290.804C319.902 317.616 305.66 343.725 273.661 363.153C262.673 369.834 246.058 377.482 234.542 381.262L224.169 384.603V408.514V432.513H273.925H323.594L329.484 428.909C350.67 415.986 377.922 406.668 407.899 402.097C422.052 399.899 454.315 399.899 468.996 402.009C499.94 406.58 528.774 416.514 549.257 429.524L553.828 432.513H603.936H654.045V408.338C654.045 388.998 653.781 384.163 652.902 384.163C650.528 384.163 629.606 376.076 619.848 371.416C605.079 364.296 593.475 356.296 583.717 346.362C574.838 337.396 570.795 331.418 567.19 321.924C565.08 316.649 564.905 314.803 564.905 303.726C564.817 293.089 565.168 290.628 566.839 285.705C571.41 272.958 580.552 261.266 594.53 250.453L602.354 244.388H618.969H635.584V236.476C635.584 230.762 635.847 228.564 636.726 228.564C643.32 228.564 677.78 224.608 679.274 223.641C680.329 222.938 682.263 220.652 683.494 218.542C684.725 216.432 686.483 214.411 687.274 214.059C688.065 213.707 695.889 210.894 704.592 207.817C775.711 182.236 835.05 145.402 864.323 108.744C868.543 103.381 877.334 90.1949 877.334 89.052C877.334 88.7004 835.577 88.4367 784.59 88.6125L691.846 88.7883V82.1951V75.6019H663.715H635.584V69.0087V62.4156L494.314 62.5914L352.956 62.8551L353.307 73.0526C353.483 78.6787 353.307 85.7115 352.956 88.7004L352.34 94.0629H334.407H316.473V79.9095C316.473 66.5473 316.561 65.7561 318.231 65.3166C319.902 64.877 319.99 64.0858 319.99 47.8226V30.7682H302.408H284.826V46.5919ZM298.012 107.249V126.589H279.112H260.211V107.689V88.8762L272.343 88.5246C278.936 88.4367 287.463 88.1729 291.243 88.085L298.012 87.9092V107.249ZM224.169 124.831V140.655H208.345H192.521V124.831V109.007H208.345H224.169V124.831ZM356.911 129.666V144.171H341.967H327.022V129.666V115.161H341.967H356.911V129.666ZM284.826 176.258V188.126H273.398H261.969V176.258V164.39H273.398H284.826V176.258Z" fill="black"/>
<path d="M189.004 52.306V72.0856H208.783H228.563V52.306V32.5265H208.783H189.004V52.306Z" fill="black"/>
<path d="M127.469 58.0201V69.4483H139.336H151.204V58.0201V46.5919H139.336H127.469V58.0201Z" fill="black"/>
<path d="M85.752 606.792H115.192V621H67.832V531.656H85.752V606.792ZM168.054 621.896C159.691 621.896 152.011 619.933 145.014 616.008C138.017 612.083 132.47 606.664 128.374 599.752C124.278 592.755 122.23 584.861 122.23 576.072C122.23 567.368 124.278 559.56 128.374 552.648C132.47 545.651 138.017 540.189 145.014 536.264C152.011 532.339 159.691 530.376 168.054 530.376C176.502 530.376 184.182 532.339 191.094 536.264C198.091 540.189 203.595 545.651 207.606 552.648C211.702 559.56 213.75 567.368 213.75 576.072C213.75 584.861 211.702 592.755 207.606 599.752C203.595 606.664 198.091 612.083 191.094 616.008C184.097 619.933 176.417 621.896 168.054 621.896ZM168.054 605.896C173.43 605.896 178.166 604.701 182.262 602.312C186.358 599.837 189.558 596.339 191.862 591.816C194.166 587.293 195.318 582.045 195.318 576.072C195.318 570.099 194.166 564.893 191.862 560.456C189.558 555.933 186.358 552.477 182.262 550.088C178.166 547.699 173.43 546.504 168.054 546.504C162.678 546.504 157.899 547.699 153.718 550.088C149.622 552.477 146.422 555.933 144.118 560.456C141.814 564.893 140.662 570.099 140.662 576.072C140.662 582.045 141.814 587.293 144.118 591.816C146.422 596.339 149.622 599.837 153.718 602.312C157.899 604.701 162.678 605.896 168.054 605.896ZM281.866 603.976H246.282L240.394 621H221.578L253.706 531.528H274.57L306.698 621H287.754L281.866 603.976ZM277.002 589.64L264.074 552.264L251.146 589.64H277.002ZM349.939 531.656C359.326 531.656 367.56 533.491 374.643 537.16C381.811 540.829 387.315 546.077 391.155 552.904C395.08 559.645 397.043 567.496 397.043 576.456C397.043 585.416 395.08 593.267 391.155 600.008C387.315 606.664 381.811 611.827 374.643 615.496C367.56 619.165 359.326 621 349.939 621H318.707V531.656H349.939ZM349.299 605.768C358.686 605.768 365.939 603.208 371.059 598.088C376.179 592.968 378.739 585.757 378.739 576.456C378.739 567.155 376.179 559.901 371.059 554.696C365.939 549.405 358.686 546.76 349.299 546.76H336.627V605.768H349.299ZM465.625 531.656V546.12H428.377V569.032H456.921V583.24H428.377V621H410.457V531.656H465.625ZM519.804 621.896C511.441 621.896 503.761 619.933 496.764 616.008C489.767 612.083 484.22 606.664 480.124 599.752C476.028 592.755 473.98 584.861 473.98 576.072C473.98 567.368 476.028 559.56 480.124 552.648C484.22 545.651 489.767 540.189 496.764 536.264C503.761 532.339 511.441 530.376 519.804 530.376C528.252 530.376 535.932 532.339 542.844 536.264C549.841 540.189 555.345 545.651 559.356 552.648C563.452 559.56 565.5 567.368 565.5 576.072C565.5 584.861 563.452 592.755 559.356 599.752C555.345 606.664 549.841 612.083 542.844 616.008C535.847 619.933 528.167 621.896 519.804 621.896ZM519.804 605.896C525.18 605.896 529.916 604.701 534.012 602.312C538.108 599.837 541.308 596.339 543.612 591.816C545.916 587.293 547.068 582.045 547.068 576.072C547.068 570.099 545.916 564.893 543.612 560.456C541.308 555.933 538.108 552.477 534.012 550.088C529.916 547.699 525.18 546.504 519.804 546.504C514.428 546.504 509.649 547.699 505.468 550.088C501.372 552.477 498.172 555.933 495.868 560.456C493.564 564.893 492.412 570.099 492.412 576.072C492.412 582.045 493.564 587.293 495.868 591.816C498.172 596.339 501.372 599.837 505.468 602.312C509.649 604.701 514.428 605.896 519.804 605.896ZM624.912 621L605.2 586.184H596.752V621H578.832V531.656H612.368C619.28 531.656 625.168 532.893 630.032 535.368C634.896 537.757 638.523 541.043 640.912 545.224C643.387 549.32 644.624 553.928 644.624 559.048C644.624 564.936 642.917 570.269 639.504 575.048C636.091 579.741 631.013 582.984 624.272 584.776L645.648 621H624.912ZM596.752 572.744H611.728C616.592 572.744 620.219 571.592 622.608 569.288C624.997 566.899 626.192 563.613 626.192 559.432C626.192 555.336 624.997 552.179 622.608 549.96C620.219 547.656 616.592 546.504 611.728 546.504H596.752V572.744ZM723.04 558.536C720.992 554.781 718.176 551.923 714.592 549.96C711.008 547.997 706.827 547.016 702.048 547.016C696.757 547.016 692.064 548.211 687.968 550.6C683.872 552.989 680.672 556.403 678.368 560.84C676.064 565.277 674.912 570.397 674.912 576.2C674.912 582.173 676.064 587.379 678.368 591.816C680.757 596.253 684.043 599.667 688.224 602.056C692.405 604.445 697.269 605.64 702.816 605.64C709.643 605.64 715.232 603.848 719.584 600.264C723.936 596.595 726.795 591.517 728.16 585.032H697.44V571.336H745.824V586.952C744.629 593.181 742.069 598.941 738.144 604.232C734.219 609.523 729.141 613.789 722.912 617.032C716.768 620.189 709.856 621.768 702.176 621.768C693.557 621.768 685.749 619.848 678.752 616.008C671.84 612.083 666.379 606.664 662.368 599.752C658.443 592.84 656.48 584.989 656.48 576.2C656.48 567.411 658.443 559.56 662.368 552.648C666.379 545.651 671.84 540.232 678.752 536.392C685.749 532.467 693.515 530.504 702.048 530.504C712.117 530.504 720.864 532.979 728.288 537.928C735.712 542.792 740.832 549.661 743.648 558.536H723.04ZM777.002 546.12V568.52H807.082V582.728H777.002V606.408H810.922V621H759.082V531.528H810.922V546.12H777.002Z" fill="#FF4400"/>
<path d="M85.752 606.792H115.192V621H67.832V531.656H85.752V606.792ZM168.054 621.896C159.691 621.896 152.011 619.933 145.014 616.008C138.017 612.083 132.47 606.664 128.374 599.752C124.278 592.755 122.23 584.861 122.23 576.072C122.23 567.368 124.278 559.56 128.374 552.648C132.47 545.651 138.017 540.189 145.014 536.264C152.011 532.339 159.691 530.376 168.054 530.376C176.502 530.376 184.182 532.339 191.094 536.264C198.091 540.189 203.595 545.651 207.606 552.648C211.702 559.56 213.75 567.368 213.75 576.072C213.75 584.861 211.702 592.755 207.606 599.752C203.595 606.664 198.091 612.083 191.094 616.008C184.097 619.933 176.417 621.896 168.054 621.896ZM168.054 605.896C173.43 605.896 178.166 604.701 182.262 602.312C186.358 599.837 189.558 596.339 191.862 591.816C194.166 587.293 195.318 582.045 195.318 576.072C195.318 570.099 194.166 564.893 191.862 560.456C189.558 555.933 186.358 552.477 182.262 550.088C178.166 547.699 173.43 546.504 168.054 546.504C162.678 546.504 157.899 547.699 153.718 550.088C149.622 552.477 146.422 555.933 144.118 560.456C141.814 564.893 140.662 570.099 140.662 576.072C140.662 582.045 141.814 587.293 144.118 591.816C146.422 596.339 149.622 599.837 153.718 602.312C157.899 604.701 162.678 605.896 168.054 605.896ZM281.866 603.976H246.282L240.394 621H221.578L253.706 531.528H274.57L306.698 621H287.754L281.866 603.976ZM277.002 589.64L264.074 552.264L251.146 589.64H277.002ZM349.939 531.656C359.326 531.656 367.56 533.491 374.643 537.16C381.811 540.829 387.315 546.077 391.155 552.904C395.08 559.645 397.043 567.496 397.043 576.456C397.043 585.416 395.08 593.267 391.155 600.008C387.315 606.664 381.811 611.827 374.643 615.496C367.56 619.165 359.326 621 349.939 621H318.707V531.656H349.939ZM349.299 605.768C358.686 605.768 365.939 603.208 371.059 598.088C376.179 592.968 378.739 585.757 378.739 576.456C378.739 567.155 376.179 559.901 371.059 554.696C365.939 549.405 358.686 546.76 349.299 546.76H336.627V605.768H349.299ZM465.625 531.656V546.12H428.377V569.032H456.921V583.24H428.377V621H410.457V531.656H465.625ZM519.804 621.896C511.441 621.896 503.761 619.933 496.764 616.008C489.767 612.083 484.22 606.664 480.124 599.752C476.028 592.755 473.98 584.861 473.98 576.072C473.98 567.368 476.028 559.56 480.124 552.648C484.22 545.651 489.767 540.189 496.764 536.264C503.761 532.339 511.441 530.376 519.804 530.376C528.252 530.376 535.932 532.339 542.844 536.264C549.841 540.189 555.345 545.651 559.356 552.648C563.452 559.56 565.5 567.368 565.5 576.072C565.5 584.861 563.452 592.755 559.356 599.752C555.345 606.664 549.841 612.083 542.844 616.008C535.847 619.933 528.167 621.896 519.804 621.896ZM519.804 605.896C525.18 605.896 529.916 604.701 534.012 602.312C538.108 599.837 541.308 596.339 543.612 591.816C545.916 587.293 547.068 582.045 547.068 576.072C547.068 570.099 545.916 564.893 543.612 560.456C541.308 555.933 538.108 552.477 534.012 550.088C529.916 547.699 525.18 546.504 519.804 546.504C514.428 546.504 509.649 547.699 505.468 550.088C501.372 552.477 498.172 555.933 495.868 560.456C493.564 564.893 492.412 570.099 492.412 576.072C492.412 582.045 493.564 587.293 495.868 591.816C498.172 596.339 501.372 599.837 505.468 602.312C509.649 604.701 514.428 605.896 519.804 605.896ZM624.912 621L605.2 586.184H596.752V621H578.832V531.656H612.368C619.28 531.656 625.168 532.893 630.032 535.368C634.896 537.757 638.523 541.043 640.912 545.224C643.387 549.32 644.624 553.928 644.624 559.048C644.624 564.936 642.917 570.269 639.504 575.048C636.091 579.741 631.013 582.984 624.272 584.776L645.648 621H624.912ZM596.752 572.744H611.728C616.592 572.744 620.219 571.592 622.608 569.288C624.997 566.899 626.192 563.613 626.192 559.432C626.192 555.336 624.997 552.179 622.608 549.96C620.219 547.656 616.592 546.504 611.728 546.504H596.752V572.744ZM723.04 558.536C720.992 554.781 718.176 551.923 714.592 549.96C711.008 547.997 706.827 547.016 702.048 547.016C696.757 547.016 692.064 548.211 687.968 550.6C683.872 552.989 680.672 556.403 678.368 560.84C676.064 565.277 674.912 570.397 674.912 576.2C674.912 582.173 676.064 587.379 678.368 591.816C680.757 596.253 684.043 599.667 688.224 602.056C692.405 604.445 697.269 605.64 702.816 605.64C709.643 605.64 715.232 603.848 719.584 600.264C723.936 596.595 726.795 591.517 728.16 585.032H697.44V571.336H745.824V586.952C744.629 593.181 742.069 598.941 738.144 604.232C734.219 609.523 729.141 613.789 722.912 617.032C716.768 620.189 709.856 621.768 702.176 621.768C693.557 621.768 685.749 619.848 678.752 616.008C671.84 612.083 666.379 606.664 662.368 599.752C658.443 592.84 656.48 584.989 656.48 576.2C656.48 567.411 658.443 559.56 662.368 552.648C666.379 545.651 671.84 540.232 678.752 536.392C685.749 532.467 693.515 530.504 702.048 530.504C712.117 530.504 720.864 532.979 728.288 537.928C735.712 542.792 740.832 549.661 743.648 558.536H723.04ZM777.002 546.12V568.52H807.082V582.728H777.002V606.408H810.922V621H759.082V531.528H810.922V546.12H777.002Z" fill="#FF4400"/>
</svg>
