<svg width="744" height="92" viewBox="0 0 744 92" fill="none" xmlns="http://www.w3.org/2000/svg">
<path d="M18.752 76.7919H48.192V90.9999H0.832001V1.65588H18.752V76.7919ZM101.054 91.8959C92.6913 91.8959 85.0113 89.9332 78.014 86.0079C71.0167 82.0825 65.47 76.6639 61.374 69.7519C57.278 62.7545 55.23 54.8612 55.23 46.0719C55.23 37.3679 57.278 29.5599 61.374 22.6479C65.47 15.6505 71.0167 10.1892 78.014 6.26387C85.0113 2.33854 92.6913 0.375877 101.054 0.375877C109.502 0.375877 117.182 2.33854 124.094 6.26387C131.091 10.1892 136.595 15.6505 140.606 22.6479C144.702 29.5599 146.75 37.3679 146.75 46.0719C146.75 54.8612 144.702 62.7545 140.606 69.7519C136.595 76.6639 131.091 82.0825 124.094 86.0079C117.097 89.9332 109.417 91.8959 101.054 91.8959ZM101.054 75.8959C106.43 75.8959 111.166 74.7012 115.262 72.3119C119.358 69.8372 122.558 66.3385 124.862 61.8159C127.166 57.2932 128.318 52.0452 128.318 46.0719C128.318 40.0985 127.166 34.8932 124.862 30.4559C122.558 25.9332 119.358 22.4772 115.262 20.0879C111.166 17.6985 106.43 16.5039 101.054 16.5039C95.678 16.5039 90.8993 17.6985 86.718 20.0879C82.622 22.4772 79.422 25.9332 77.118 30.4559C74.814 34.8932 73.662 40.0985 73.662 46.0719C73.662 52.0452 74.814 57.2932 77.118 61.8159C79.422 66.3385 82.622 69.8372 86.718 72.3119C90.8993 74.7012 95.678 75.8959 101.054 75.8959ZM214.866 73.9759H179.282L173.394 90.9999H154.578L186.706 1.52787H207.57L239.698 90.9999H220.754L214.866 73.9759ZM210.002 59.6399L197.074 22.2639L184.146 59.6399H210.002ZM282.939 1.65588C292.326 1.65588 300.56 3.49054 307.643 7.15987C314.811 10.8292 320.315 16.0772 324.155 22.9039C328.08 29.6452 330.043 37.4959 330.043 46.4559C330.043 55.4159 328.08 63.2665 324.155 70.0079C320.315 76.6639 314.811 81.8265 307.643 85.4959C300.56 89.1652 292.326 90.9999 282.939 90.9999H251.707V1.65588H282.939ZM282.299 75.7679C291.686 75.7679 298.939 73.2079 304.059 68.0879C309.179 62.9679 311.739 55.7572 311.739 46.4559C311.739 37.1545 309.179 29.9012 304.059 24.6959C298.939 19.4052 291.686 16.7599 282.299 16.7599H269.627V75.7679H282.299ZM398.625 1.65588V16.1199H361.377V39.0319H389.921V53.2399H361.377V90.9999H343.457V1.65588H398.625ZM452.804 91.8959C444.441 91.8959 436.761 89.9332 429.764 86.0079C422.767 82.0825 417.22 76.6639 413.124 69.7519C409.028 62.7545 406.98 54.8612 406.98 46.0719C406.98 37.3679 409.028 29.5599 413.124 22.6479C417.22 15.6505 422.767 10.1892 429.764 6.26387C436.761 2.33854 444.441 0.375877 452.804 0.375877C461.252 0.375877 468.932 2.33854 475.844 6.26387C482.841 10.1892 488.345 15.6505 492.356 22.6479C496.452 29.5599 498.5 37.3679 498.5 46.0719C498.5 54.8612 496.452 62.7545 492.356 69.7519C488.345 76.6639 482.841 82.0825 475.844 86.0079C468.847 89.9332 461.167 91.8959 452.804 91.8959ZM452.804 75.8959C458.18 75.8959 462.916 74.7012 467.012 72.3119C471.108 69.8372 474.308 66.3385 476.612 61.8159C478.916 57.2932 480.068 52.0452 480.068 46.0719C480.068 40.0985 478.916 34.8932 476.612 30.4559C474.308 25.9332 471.108 22.4772 467.012 20.0879C462.916 17.6985 458.18 16.5039 452.804 16.5039C447.428 16.5039 442.649 17.6985 438.468 20.0879C434.372 22.4772 431.172 25.9332 428.868 30.4559C426.564 34.8932 425.412 40.0985 425.412 46.0719C425.412 52.0452 426.564 57.2932 428.868 61.8159C431.172 66.3385 434.372 69.8372 438.468 72.3119C442.649 74.7012 447.428 75.8959 452.804 75.8959ZM557.912 90.9999L538.2 56.1839H529.752V90.9999H511.832V1.65588H545.368C552.28 1.65588 558.168 2.89321 563.032 5.36787C567.896 7.75721 571.523 11.0425 573.912 15.2239C576.387 19.3199 577.624 23.9279 577.624 29.0479C577.624 34.9359 575.917 40.2692 572.504 45.0479C569.091 49.7412 564.013 52.9839 557.272 54.7759L578.648 90.9999H557.912ZM529.752 42.7439H544.728C549.592 42.7439 553.219 41.5919 555.608 39.2879C557.997 36.8985 559.192 33.6132 559.192 29.4319C559.192 25.3359 557.997 22.1785 555.608 19.9599C553.219 17.6559 549.592 16.5039 544.728 16.5039H529.752V42.7439ZM656.04 28.5359C653.992 24.7812 651.176 21.9225 647.592 19.9599C644.008 17.9972 639.827 17.0159 635.048 17.0159C629.757 17.0159 625.064 18.2105 620.968 20.5999C616.872 22.9892 613.672 26.4025 611.368 30.8399C609.064 35.2772 607.912 40.3972 607.912 46.1999C607.912 52.1732 609.064 57.3785 611.368 61.8159C613.757 66.2532 617.043 69.6665 621.224 72.0559C625.405 74.4452 630.269 75.6399 635.816 75.6399C642.643 75.6399 648.232 73.8479 652.584 70.2639C656.936 66.5945 659.795 61.5172 661.16 55.0319H630.44V41.3359H678.824V56.9519C677.629 63.1812 675.069 68.9412 671.144 74.2319C667.219 79.5225 662.141 83.7892 655.912 87.0319C649.768 90.1892 642.856 91.7679 635.176 91.7679C626.557 91.7679 618.749 89.8479 611.752 86.0079C604.84 82.0825 599.379 76.6639 595.368 69.7519C591.443 62.8399 589.48 54.9892 589.48 46.1999C589.48 37.4105 591.443 29.5599 595.368 22.6479C599.379 15.6505 604.84 10.2319 611.752 6.39188C618.749 2.46654 626.515 0.503876 635.048 0.503876C645.117 0.503876 653.864 2.97854 661.288 7.92787C668.712 12.7919 673.832 19.6612 676.648 28.5359H656.04ZM710.002 16.1199V38.5199H740.082V52.7279H710.002V76.4079H743.922V90.9999H692.082V1.52787H743.922V16.1199H710.002Z" fill="#FF4400"/>
</svg>
