<svg width="744" height="92" viewBox="0 0 744 92" fill="none" xmlns="http://www.w3.org/2000/svg">
<path d="M18.752 76.792H48.192V91H0.832001V1.656H18.752V76.792ZM101.054 91.896C92.6913 91.896 85.0113 89.9333 78.014 86.008C71.0167 82.0827 65.47 76.664 61.374 69.752C57.278 62.7547 55.23 54.8613 55.23 46.072C55.23 37.368 57.278 29.56 61.374 22.648C65.47 15.6507 71.0167 10.1893 78.014 6.26399C85.0113 2.33866 92.6913 0.375999 101.054 0.375999C109.502 0.375999 117.182 2.33866 124.094 6.26399C131.091 10.1893 136.595 15.6507 140.606 22.648C144.702 29.56 146.75 37.368 146.75 46.072C146.75 54.8613 144.702 62.7547 140.606 69.752C136.595 76.664 131.091 82.0827 124.094 86.008C117.097 89.9333 109.417 91.896 101.054 91.896ZM101.054 75.896C106.43 75.896 111.166 74.7013 115.262 72.312C119.358 69.8373 122.558 66.3387 124.862 61.816C127.166 57.2933 128.318 52.0453 128.318 46.072C128.318 40.0987 127.166 34.8933 124.862 30.456C122.558 25.9333 119.358 22.4773 115.262 20.088C111.166 17.6987 106.43 16.504 101.054 16.504C95.678 16.504 90.8993 17.6987 86.718 20.088C82.622 22.4773 79.422 25.9333 77.118 30.456C74.814 34.8933 73.662 40.0987 73.662 46.072C73.662 52.0453 74.814 57.2933 77.118 61.816C79.422 66.3387 82.622 69.8373 86.718 72.312C90.8993 74.7013 95.678 75.896 101.054 75.896ZM214.866 73.976H179.282L173.394 91H154.578L186.706 1.52799H207.57L239.698 91H220.754L214.866 73.976ZM210.002 59.64L197.074 22.264L184.146 59.64H210.002ZM282.939 1.656C292.326 1.656 300.56 3.49066 307.643 7.16C314.811 10.8293 320.315 16.0773 324.155 22.904C328.08 29.6453 330.043 37.496 330.043 46.456C330.043 55.416 328.08 63.2667 324.155 70.008C320.315 76.664 314.811 81.8267 307.643 85.496C300.56 89.1653 292.326 91 282.939 91H251.707V1.656H282.939ZM282.299 75.768C291.686 75.768 298.939 73.208 304.059 68.088C309.179 62.968 311.739 55.7573 311.739 46.456C311.739 37.1547 309.179 29.9013 304.059 24.696C298.939 19.4053 291.686 16.76 282.299 16.76H269.627V75.768H282.299ZM398.625 1.656V16.12H361.377V39.032H389.921V53.24H361.377V91H343.457V1.656H398.625ZM452.804 91.896C444.441 91.896 436.761 89.9333 429.764 86.008C422.767 82.0827 417.22 76.664 413.124 69.752C409.028 62.7547 406.98 54.8613 406.98 46.072C406.98 37.368 409.028 29.56 413.124 22.648C417.22 15.6507 422.767 10.1893 429.764 6.26399C436.761 2.33866 444.441 0.375999 452.804 0.375999C461.252 0.375999 468.932 2.33866 475.844 6.26399C482.841 10.1893 488.345 15.6507 492.356 22.648C496.452 29.56 498.5 37.368 498.5 46.072C498.5 54.8613 496.452 62.7547 492.356 69.752C488.345 76.664 482.841 82.0827 475.844 86.008C468.847 89.9333 461.167 91.896 452.804 91.896ZM452.804 75.896C458.18 75.896 462.916 74.7013 467.012 72.312C471.108 69.8373 474.308 66.3387 476.612 61.816C478.916 57.2933 480.068 52.0453 480.068 46.072C480.068 40.0987 478.916 34.8933 476.612 30.456C474.308 25.9333 471.108 22.4773 467.012 20.088C462.916 17.6987 458.18 16.504 452.804 16.504C447.428 16.504 442.649 17.6987 438.468 20.088C434.372 22.4773 431.172 25.9333 428.868 30.456C426.564 34.8933 425.412 40.0987 425.412 46.072C425.412 52.0453 426.564 57.2933 428.868 61.816C431.172 66.3387 434.372 69.8373 438.468 72.312C442.649 74.7013 447.428 75.896 452.804 75.896ZM557.912 91L538.2 56.184H529.752V91H511.832V1.656H545.368C552.28 1.656 558.168 2.89333 563.032 5.368C567.896 7.75733 571.523 11.0427 573.912 15.224C576.387 19.32 577.624 23.928 577.624 29.048C577.624 34.936 575.917 40.2693 572.504 45.048C569.091 49.7413 564.013 52.984 557.272 54.776L578.648 91H557.912ZM529.752 42.744H544.728C549.592 42.744 553.219 41.592 555.608 39.288C557.997 36.8987 559.192 33.6133 559.192 29.432C559.192 25.336 557.997 22.1787 555.608 19.96C553.219 17.656 549.592 16.504 544.728 16.504H529.752V42.744ZM656.04 28.536C653.992 24.7813 651.176 21.9227 647.592 19.96C644.008 17.9973 639.827 17.016 635.048 17.016C629.757 17.016 625.064 18.2107 620.968 20.6C616.872 22.9893 613.672 26.4027 611.368 30.84C609.064 35.2773 607.912 40.3973 607.912 46.2C607.912 52.1733 609.064 57.3787 611.368 61.816C613.757 66.2533 617.043 69.6667 621.224 72.056C625.405 74.4453 630.269 75.64 635.816 75.64C642.643 75.64 648.232 73.848 652.584 70.264C656.936 66.5947 659.795 61.5173 661.16 55.032H630.44V41.336H678.824V56.952C677.629 63.1813 675.069 68.9413 671.144 74.232C667.219 79.5227 662.141 83.7893 655.912 87.032C649.768 90.1893 642.856 91.768 635.176 91.768C626.557 91.768 618.749 89.848 611.752 86.008C604.84 82.0827 599.379 76.664 595.368 69.752C591.443 62.84 589.48 54.9893 589.48 46.2C589.48 37.4107 591.443 29.56 595.368 22.648C599.379 15.6507 604.84 10.232 611.752 6.392C618.749 2.46666 626.515 0.503998 635.048 0.503998C645.117 0.503998 653.864 2.97866 661.288 7.92799C668.712 12.792 673.832 19.6613 676.648 28.536H656.04ZM710.002 16.12V38.52H740.082V52.728H710.002V76.408H743.922V91H692.082V1.52799H743.922V16.12H710.002Z" fill="black"/>
</svg>
