<svg width="878" height="433" viewBox="0 0 878 433" fill="none" xmlns="http://www.w3.org/2000/svg">
<path d="M154.545 10.1094L154.281 20.219H164.83H175.379L175.116 10.1094L174.852 -0.000156403H164.83H154.809L154.545 10.1094Z" fill="black"/>
<path d="M284.826 62.4154H248.783V87.9091L183.115 87.997C146.896 87.997 90.986 88.0849 58.7234 88.1728C26.3728 88.1728 0 88.3486 0 88.5244C0 89.4914 7.91183 100.304 14.7687 108.656C40.3503 139.951 83.5138 172.566 126.853 193.4C167.291 212.74 209.312 225.311 240.695 227.421L248.783 227.948V243.333L261.794 243.596L274.716 243.948L280.87 248.255C297.836 260.299 309.001 275.068 313.045 290.804C319.902 317.616 305.66 343.725 273.661 363.153C262.673 369.834 246.058 377.482 234.542 381.262L224.169 384.603V432.513H323.594L329.484 428.909C350.67 415.986 377.922 406.668 407.899 402.097C422.052 399.899 454.315 399.899 468.996 402.009C499.94 406.58 528.774 416.514 549.257 429.524L553.828 432.513H654.045V408.338C654.045 388.998 653.781 384.163 652.902 384.163C650.528 384.163 629.606 376.075 619.848 371.416C605.079 364.296 593.475 356.296 583.717 346.362C574.838 337.395 570.794 331.418 567.19 321.923C565.08 316.649 564.905 314.803 564.905 303.726C564.817 293.089 565.168 290.628 566.839 285.705C571.41 272.958 580.552 261.266 594.53 250.453L602.354 244.387H635.584V236.476C635.584 230.762 635.847 228.564 636.726 228.564C643.32 228.564 677.78 224.608 679.274 223.641C680.329 222.938 682.263 220.652 683.494 218.542C684.725 216.432 686.483 214.41 687.274 214.059C688.065 213.707 695.889 210.894 704.592 207.817C775.711 182.236 835.05 145.402 864.323 108.744C868.543 103.381 877.334 90.1947 877.334 89.0519C877.334 88.7002 835.577 88.4365 784.59 88.6123L691.846 88.7881V75.6018H635.584V62.4154L352.956 62.8549L353.307 73.0524C353.483 78.6786 353.307 85.7113 352.956 88.7002L352.34 94.0627H316.473V79.9093C316.473 66.5471 316.561 65.7559 318.231 65.3164C319.902 64.8768 319.99 64.0857 319.99 47.8225V30.7681H284.826V62.4154ZM298.012 126.589H260.211V88.8761L272.343 88.5244C278.936 88.4365 287.463 88.1728 291.243 88.0849L298.012 87.9091V126.589ZM224.169 140.655H192.521V109.007H224.169V140.655ZM356.911 144.171H327.022V115.161H356.911V144.171ZM284.826 188.126H261.969V164.39H284.826V188.126Z" fill="black"/>
<path d="M189.004 52.3059V72.0854H208.783H228.563V52.3059V32.5263H208.783H189.004V52.3059Z" fill="black"/>
<path d="M127.469 58.02V69.4482H139.336H151.204V58.02V46.5918H139.336H127.469V58.02Z" fill="black"/>
</svg>
